<svg width="100" height="80" viewBox="0 0 100 80" fill="none" xmlns="http://www.w3.org/2000/svg">
<g id="Group">
<path id="Vector" d="M88.4859 41.8818H11.3739C9.75675 41.8818 8.4428 43.2508 8.58473 44.858C10.275 64.0089 28.1412 79.0765 49.932 79.0765C71.7229 79.0765 89.5869 64.0089 91.2794 44.858C91.4191 43.253 90.1052 41.8818 88.4859 41.8818Z" fill="#FF6633"/>
<path id="Vector_2" d="M36.0142 13.2294C35.1518 13.2294 34.3002 12.8411 33.739 12.1051C30.9197 8.40791 25.5693 6.10979 19.7759 6.10979C13.9804 6.10979 8.62996 8.40576 5.81283 12.1051C4.85801 13.3582 3.06666 13.6007 1.81078 12.6479C0.554901 11.6952 0.311897 9.9078 1.26671 8.65467C5.20209 3.49196 12.1202 0.410645 19.7781 0.410645C27.4338 0.410645 34.354 3.49196 38.2894 8.65467C39.2442 9.9078 39.0012 11.6952 37.7453 12.6479C37.2249 13.0385 36.6163 13.2294 36.0142 13.2294Z" fill="#F3F2F1"/>
<path id="Vector_3" d="M96.3228 13.2294C95.4604 13.2294 94.6088 12.8411 94.0476 12.1051C91.2283 8.40791 85.8779 6.10979 80.0845 6.10979C74.2889 6.10979 68.9385 8.40576 66.1214 12.1051C65.1666 13.3582 63.3731 13.6007 62.1194 12.6479C60.8635 11.6952 60.6205 9.9078 61.5753 8.65467C65.5107 3.49196 72.4288 0.410645 80.0866 0.410645C87.7445 0.410645 94.6626 3.49196 98.598 8.65467C99.5528 9.9078 99.3098 11.6952 98.0539 12.6479C97.5335 13.0385 96.9249 13.2294 96.3228 13.2294Z" fill="#F3F2F1"/>
</g>
</svg>
