<svg width="101" height="10" viewBox="0 0 101 10" fill="none" xmlns="http://www.w3.org/2000/svg">
<g id="logo-zasovskiy-small-black" clip-path="url(#clip0_25872_4067)">
<path id="Union" fill-rule="evenodd" clip-rule="evenodd" d="M18.741 0.369699L10.8876 7.7798C10.6121 8.03969 10.8173 8.46936 11.2168 8.46936H18.9056C19.0311 8.46936 19.1328 8.37799 19.1328 8.26528V0.510401C19.1328 0.326144 18.8824 0.236234 18.741 0.369699ZM8.74523 2.22024L0.891843 9.63034C0.750394 9.7638 0.5 9.67389 0.5 9.48964V1.73476C0.5 1.62205 0.60174 1.53068 0.727242 1.53068H8.41603C8.81554 1.53068 9.02067 1.96035 8.74523 2.22024ZM50.3157 2.4198C50.0623 2.29087 49.7592 2.17973 49.4065 2.07748C48.7954 1.9041 47.8812 1.73072 46.6491 1.73072C44.1003 1.73072 43.1166 2.63764 43.1166 3.74906C43.1166 4.78046 43.7625 5.57179 46.5199 5.83409C48.1694 5.99858 48.5271 6.05193 48.5271 6.37201C48.5271 6.78102 47.7967 6.89661 46.5 6.89661C45.7101 6.89661 45.0542 6.78546 44.5971 6.66543C44.3239 6.59874 44.0854 6.51872 43.8767 6.43425L42.893 7.71906C43.1265 7.85687 43.4197 7.98135 43.7724 8.09249C44.3736 8.28366 45.2977 8.46149 46.5994 8.46149C48.9643 8.46149 50.6486 7.90133 50.6486 6.37201C50.6486 5.10944 49.635 4.5804 46.9273 4.30922C45.6902 4.18918 45.2381 4.09138 45.2381 3.74906C45.2381 3.41119 45.7895 3.2956 46.7484 3.2956C47.5086 3.2956 48.1495 3.39785 48.6066 3.5001C48.8749 3.5579 49.1183 3.62903 49.332 3.7046L50.3157 2.4198ZM32.2316 2.83769L28.1774 6.71878H32.2316V8.28366H24.7543V7.35451L28.8034 3.47343H24.8536V1.90855H32.2316V2.83769ZM42.4387 8.28366H40.1831L39.5521 7.25226H35.7762L35.1452 8.28366H32.8896L36.7997 1.90855H38.5286L42.4387 8.28366ZM38.6777 5.82075L37.6642 4.16251L36.6506 5.82075H38.6777ZM61.1538 5.0961C61.1538 6.95885 59.6136 8.46149 56.255 8.46149C52.8964 8.46149 51.3563 6.95885 51.3563 5.0961C51.3563 3.23336 52.8964 1.73072 56.255 1.73072C59.6136 1.73072 61.1538 3.23336 61.1538 5.0961ZM53.4777 5.0961C53.4777 6.00302 54.0739 6.89661 56.255 6.89661C58.4361 6.89661 59.0323 6.00302 59.0323 5.0961C59.0323 4.18918 58.4361 3.2956 56.255 3.2956C54.0739 3.2956 53.4777 4.18918 53.4777 5.0961ZM63.4662 1.90855H61.2106L65.0213 8.28366H66.7503L70.561 1.90855H68.3054L65.8858 6.0297L63.4662 1.90855ZM77.3698 2.07748C77.7225 2.17973 78.0256 2.29087 78.279 2.4198L77.2953 3.7046C77.0816 3.62903 76.8382 3.5579 76.5699 3.5001C76.1128 3.39785 75.4719 3.2956 74.7117 3.2956C73.7529 3.2956 73.2014 3.41119 73.2014 3.74906C73.2014 4.09138 73.6535 4.18918 74.8906 4.30922C77.5983 4.5804 78.6119 5.10944 78.6119 6.37201C78.6119 7.90133 76.9276 8.46149 74.5627 8.46149C73.261 8.46149 72.3369 8.28366 71.7357 8.09249C71.383 7.98135 71.0898 7.85687 70.8563 7.71906L71.8401 6.43425C72.0487 6.51872 72.2872 6.59874 72.5605 6.66543C73.0175 6.78546 73.6734 6.89661 74.4633 6.89661C75.7601 6.89661 76.4904 6.78102 76.4904 6.37201C76.4904 6.05193 76.1327 5.99858 74.4832 5.83409C71.7258 5.57179 71.0799 4.78046 71.0799 3.74906C71.0799 2.63764 72.0636 1.73072 74.6124 1.73072C75.8445 1.73072 76.7587 1.9041 77.3698 2.07748ZM81.6199 4.2781V1.90855H79.5183V8.28366H81.6199V6.30977L82.3999 5.73184L85.053 8.28366H87.6216L83.8507 4.66043L87.572 1.90855H84.8245L81.6199 4.2781ZM90.4806 8.28366H88.379V1.90855H90.4806V8.28366ZM93.7172 1.90855H91.238L94.8152 5.75406V8.28366H96.9217V5.75406L100.499 1.90855H98.0197L95.8685 4.22919L93.7172 1.90855Z" fill="#414141"/>
</g>
<defs>
<clipPath id="clip0_25872_4067">
<rect width="100" height="10" fill="white" transform="translate(0.5)"/>
</clipPath>
</defs>
</svg>
